<svg width="26" height="25" viewBox="0 0 26 25" fill="none" xmlns="http://www.w3.org/2000/svg">
<path d="M6 22.4497C5.45 22.4497 4.97917 22.2494 4.5875 21.849C4.19583 21.4485 4 20.9671 4 20.4047V6.08994C4 5.52757 4.19583 5.04615 4.5875 4.64568C4.97917 4.2452 5.45 4.04497 6 4.04497H7V2H9V4.04497H17V2H19V4.04497H20C20.55 4.04497 21.0208 4.2452 21.4125 4.64568C21.8042 5.04615 22 5.52757 22 6.08994V20.4047C22 20.9671 21.8042 21.4485 21.4125 21.849C21.0208 22.2494 20.55 22.4497 20 22.4497H6ZM6 20.4047H20V10.1799H6V20.4047ZM6 8.1349H20V6.08994H6V8.1349ZM13 14.2698C12.7167 14.2698 12.4792 14.1718 12.2875 13.9758C12.0958 13.7799 12 13.537 12 13.2473C12 12.9576 12.0958 12.7148 12.2875 12.5188C12.4792 12.3228 12.7167 12.2248 13 12.2248C13.2833 12.2248 13.5208 12.3228 13.7125 12.5188C13.9042 12.7148 14 12.9576 14 13.2473C14 13.537 13.9042 13.7799 13.7125 13.9758C13.5208 14.1718 13.2833 14.2698 13 14.2698ZM9 14.2698C8.71667 14.2698 8.47917 14.1718 8.2875 13.9758C8.09583 13.7799 8 13.537 8 13.2473C8 12.9576 8.09583 12.7148 8.2875 12.5188C8.47917 12.3228 8.71667 12.2248 9 12.2248C9.28333 12.2248 9.52083 12.3228 9.7125 12.5188C9.90417 12.7148 10 12.9576 10 13.2473C10 13.537 9.90417 13.7799 9.7125 13.9758C9.52083 14.1718 9.28333 14.2698 9 14.2698ZM17 14.2698C16.7167 14.2698 16.4792 14.1718 16.2875 13.9758C16.0958 13.7799 16 13.537 16 13.2473C16 12.9576 16.0958 12.7148 16.2875 12.5188C16.4792 12.3228 16.7167 12.2248 17 12.2248C17.2833 12.2248 17.5208 12.3228 17.7125 12.5188C17.9042 12.7148 18 12.9576 18 13.2473C18 13.537 17.9042 13.7799 17.7125 13.9758C17.5208 14.1718 17.2833 14.2698 17 14.2698ZM13 18.3597C12.7167 18.3597 12.4792 18.2618 12.2875 18.0658C12.0958 17.8698 12 17.627 12 17.3373C12 17.0476 12.0958 16.8047 12.2875 16.6087C12.4792 16.4128 12.7167 16.3148 13 16.3148C13.2833 16.3148 13.5208 16.4128 13.7125 16.6087C13.9042 16.8047 14 17.0476 14 17.3373C14 17.627 13.9042 17.8698 13.7125 18.0658C13.5208 18.2618 13.2833 18.3597 13 18.3597ZM9 18.3597C8.71667 18.3597 8.47917 18.2618 8.2875 18.0658C8.09583 17.8698 8 17.627 8 17.3373C8 17.0476 8.09583 16.8047 8.2875 16.6087C8.47917 16.4128 8.71667 16.3148 9 16.3148C9.28333 16.3148 9.52083 16.4128 9.7125 16.6087C9.90417 16.8047 10 17.0476 10 17.3373C10 17.627 9.90417 17.8698 9.7125 18.0658C9.52083 18.2618 9.28333 18.3597 9 18.3597ZM17 18.3597C16.7167 18.3597 16.4792 18.2618 16.2875 18.0658C16.0958 17.8698 16 17.627 16 17.3373C16 17.0476 16.0958 16.8047 16.2875 16.6087C16.4792 16.4128 16.7167 16.3148 17 16.3148C17.2833 16.3148 17.5208 16.4128 17.7125 16.6087C17.9042 16.8047 18 17.0476 18 17.3373C18 17.627 17.9042 17.8698 17.7125 18.0658C17.5208 18.2618 17.2833 18.3597 17 18.3597Z" fill="#D6CCCC"/>
</svg>
