<svg width="18" height="18" viewBox="0 0 18 18" fill="none" xmlns="http://www.w3.org/2000/svg">
<path d="M0.663744 14.7214L2.46909 16.5755L2.47992 16.5865C2.48484 16.5914 2.49508 16.6015 2.50837 16.6131C2.53438 16.6357 2.59427 16.6842 2.68518 16.7146C2.79037 16.7498 2.90405 16.7505 3.00962 16.7164C3.10087 16.687 3.1613 16.6392 3.18756 16.6168C3.20097 16.6054 3.21133 16.5954 3.2163 16.5906L3.22725 16.5798L8.57344 11.2102L13.8712 16.578L13.8821 16.5889C13.8871 16.5938 13.8974 16.6038 13.9108 16.6153C13.937 16.6378 13.9975 16.6861 14.0889 16.7159C14.1947 16.7503 14.3087 16.7499 14.4142 16.7148C14.5055 16.6844 14.5656 16.6357 14.5916 16.613C14.605 16.6014 14.6152 16.5913 14.6201 16.5864L14.631 16.5754L16.4363 14.7214L16.4467 14.7105C16.4514 14.7055 16.4611 14.6952 16.4722 14.6818C16.494 14.6554 16.5397 14.5958 16.5679 14.5065C16.6006 14.4029 16.5999 14.2916 16.5661 14.1883C16.537 14.0994 16.4905 14.0402 16.4684 14.0141C16.4572 14.0008 16.4475 13.9906 16.4427 13.9857L16.4321 13.9749L11.129 8.64846L16.4338 3.27355L16.4444 3.26275C16.4491 3.25782 16.4588 3.24756 16.4699 3.23429C16.4919 3.2081 16.5379 3.14896 16.5666 3.0603C16.6001 2.95719 16.6004 2.8462 16.5677 2.74286C16.5396 2.65401 16.494 2.59456 16.4722 2.56822C16.4611 2.55488 16.4515 2.54455 16.4468 2.53959L16.4364 2.52872L14.631 0.674579L14.6201 0.663568C14.6152 0.658665 14.605 0.648563 14.5916 0.636967C14.5656 0.614284 14.5055 0.565616 14.4142 0.535217C14.3087 0.500068 14.1947 0.499682 14.0889 0.534116C13.9974 0.563897 13.937 0.612159 13.9108 0.634664C13.8974 0.646169 13.8871 0.656201 13.8821 0.661071L13.8712 0.672009L8.57344 6.03978L3.22725 0.670249L3.2163 0.659388C3.21133 0.65455 3.20097 0.644585 3.18756 0.63316C3.1613 0.610788 3.10087 0.562958 3.00962 0.53356C2.90405 0.499546 2.79037 0.50018 2.68518 0.53537C2.59427 0.565783 2.53438 0.614285 2.50837 0.636948C2.49508 0.648522 2.48484 0.658602 2.47992 0.663495L2.46909 0.674477L0.663648 2.52872L0.653191 2.53959C0.64851 2.54455 0.638876 2.55488 0.627835 2.56822C0.60604 2.59456 0.560437 2.65401 0.532288 2.74286C0.49955 2.8462 0.499926 2.95719 0.533362 3.0603C0.562112 3.14896 0.608116 3.2081 0.630088 3.23429C0.641219 3.24756 0.650923 3.25782 0.655638 3.26275L0.666169 3.27355L5.97097 8.64846L0.6679 13.9749L0.657293 13.9857C0.652547 13.9906 0.642778 14.0008 0.631566 14.0141C0.609458 14.0402 0.563036 14.0994 0.533914 14.1883C0.500067 14.2916 0.499447 14.4029 0.532142 14.5065C0.560273 14.5958 0.606032 14.6554 0.627849 14.6818C0.638912 14.6952 0.648567 14.7055 0.653258 14.7105L0.663744 14.7214Z" fill="white" stroke="white"/>
</svg>
