<svg width="255" height="127" viewBox="0 0 255 127" fill="none" xmlns="http://www.w3.org/2000/svg">
<path d="M0.680001 127V0.279995H31.784V127H0.680001ZM16.232 81.88V56.536H80.744V81.88H16.232ZM16.232 26.2V0.279995H87.272V26.2H16.232ZM98.555 127V0.279995H129.851V127H98.555ZM145.243 127V0.279995H176.347V54.424C182.491 52.376 187.867 49.496 192.475 45.784C197.211 41.944 201.243 37.592 204.571 32.728C207.899 27.864 210.651 22.68 212.827 17.176C215.003 11.544 216.667 5.91199 217.819 0.279995H252.763C251.227 7.57599 248.986 14.488 246.042 21.016C243.227 27.416 239.643 33.304 235.291 38.68C230.939 44.056 225.883 48.856 220.123 53.08C214.363 57.176 207.835 60.568 200.539 63.256V64.792C208.347 64.152 214.811 64.664 219.931 66.328C225.051 67.864 229.211 70.168 232.411 73.24C235.611 76.312 238.107 79.832 239.899 83.8C241.819 87.64 243.419 91.544 244.699 95.512L254.875 127H220.315L213.019 98.776C211.867 94.168 210.203 90.456 208.027 87.64C205.979 84.696 203.291 82.584 199.963 81.304C196.635 80.024 192.411 79.384 187.291 79.384H176.347V127H145.243Z" fill="#F5F6FF"/>
</svg>
