<svg width="45" height="34" viewBox="0 0 45 34" fill="none" xmlns="http://www.w3.org/2000/svg">
<path d="M0 17.16C0 15.4478 1.38799 14.0598 3.10016 14.0598H41.7609C43.4731 14.0598 44.8611 15.4478 44.8611 17.16V17.16C44.8611 18.8721 43.4731 20.2601 41.7609 20.2601H3.10016C1.38799 20.2601 0 18.8721 0 17.16V17.16Z" fill="#F5F6FF"/>
<path d="M0 30.2899C0 28.5777 1.38799 27.1897 3.10016 27.1897H41.7609C43.4731 27.1897 44.8611 28.5777 44.8611 30.2899V30.2899C44.8611 32.002 43.4731 33.39 41.7609 33.39H3.10016C1.38799 33.39 0 32.002 0 30.2899V30.2899Z" fill="#F5F6FF"/>
<path d="M0 4.02984C0 2.31767 1.38799 0.929688 3.10016 0.929688H41.7609C43.4731 0.929688 44.8611 2.31767 44.8611 4.02984V4.02984C44.8611 5.74201 43.4731 7.13 41.7609 7.13H3.10016C1.38799 7.13 0 5.74201 0 4.02984V4.02984Z" fill="#F5F6FF"/>
</svg>
